<?xml version="1.0" encoding="UTF-8" standalone="no"?>
<!-- Created with Inkscape (http://www.inkscape.org/) -->

<svg
   xmlns:dc="http://purl.org/dc/elements/1.1/"
   xmlns:cc="http://creativecommons.org/ns#"
   xmlns:rdf="http://www.w3.org/1999/02/22-rdf-syntax-ns#"
   xmlns:svg="http://www.w3.org/2000/svg"
   xmlns="http://www.w3.org/2000/svg"
   xmlns:sodipodi="http://sodipodi.sourceforge.net/DTD/sodipodi-0.dtd"
   xmlns:inkscape="http://www.inkscape.org/namespaces/inkscape"
   version="1.0"
   width="108.71362mm"
   height="103.24489mm"
   id="svg2"
   sodipodi:docname="ufcg.svg"
   inkscape:version="0.92.2 (5c3e80d, 2017-08-06)">
  <metadata
     id="metadata50">
    <rdf:RDF>
      <cc:Work
         rdf:about="">
        <dc:format>image/svg+xml</dc:format>
        <dc:type
           rdf:resource="http://purl.org/dc/dcmitype/StillImage" />
        <dc:title>LOGOMARCA_UFCG</dc:title>
      </cc:Work>
    </rdf:RDF>
  </metadata>
  <sodipodi:namedview
     pagecolor="#ffffff"
     bordercolor="#666666"
     borderopacity="1"
     objecttolerance="10"
     gridtolerance="10"
     guidetolerance="10"
     inkscape:pageopacity="0"
     inkscape:pageshadow="2"
     inkscape:window-width="1213"
     inkscape:window-height="969"
     id="namedview48"
     showgrid="false"
     inkscape:zoom="1"
     inkscape:cx="197.38953"
     inkscape:cy="142.61615"
     inkscape:window-x="67"
     inkscape:window-y="27"
     inkscape:window-maximized="1"
     inkscape:current-layer="layer1" />
  <title
     id="title2987">LOGOMARCA_UFCG</title>
  <defs
     id="defs4" />
  <g
     id="layer1"
     transform="translate(-173.73671,-90.400596)">
    <path
       d="m 251.63712,90.400596 c 47.3183,0.66402 210.79395,0.66402 255.26105,0.66402 -0.70304,38.415944 -1.28891,79.702834 -1.38655,106.010034 -0.0976,26.28768 0.78115,35.7403 0.68351,52.0285 -0.0977,16.28821 -0.48822,34.35366 -1.58183,46.0132 -1.09362,11.65954 -2.48016,17.40143 -4.7455,23.88546 -2.28488,6.48403 -4.45257,9.35497 -8.82703,14.82343 -4.35492,5.44894 -10.68225,11.93297 -17.2244,17.7725 -6.52263,5.82001 -12.47891,10.74162 -21.96991,17.49908 -9.51053,6.75746 -23.37599,15.74136 -35.34715,23.31908 -11.99068,7.59726 -13.37723,8.06598 -36.85086,22.22539 -11.28765,-6.11296 -14.35367,-7.96833 -27.12551,-15.91713 -8.51456,-5.09739 -15.83786,-9.45262 -24.25478,-14.62813 -8.41691,-5.19504 -19.41163,-11.75719 -26.442,-16.67881 -7.03037,-4.90208 -11.09237,-8.61283 -15.74022,-12.77276 -4.64786,-4.15994 -7.90917,-7.3043 -12.16645,-12.49934 -4.25728,-5.17551 -9.90111,-12.49934 -13.18195,-18.88572 -3.26131,-6.38639 -5.25324,-13.51492 -6.73743,-19.72553 -1.48419,-6.19107 -1.97241,-11.56188 -2.36299,-17.49907 -0.41011,-5.91766 0,14.55001 0,-18.04592 0,-32.59594 0,-140.53946 0,-177.588284"
       id="3"
       style="fill:#000066;fill-opacity:1;fill-rule:evenodd;stroke:none"
       inkscape:connector-curvature="0" />
    <path
       d="m 266.10797,168.20899 c 42.00646,0.46872 187.32032,0.46872 226.84663,0.46872 -0.6054,27.04936 0.19529,55.01663 0.0976,73.53128 -0.0976,18.6123 -0.31246,27.22512 -0.89832,38.06439 -0.58587,10.83928 -0.70304,19.82318 -2.38252,27.12748 -1.67948,7.32383 -3.96435,11.40565 -7.51859,16.95223 -3.57377,5.64423 -6.83508,10.09712 -13.86545,16.58115 -7.0499,6.58169 -18.72813,16.11243 -28.14101,22.77224 -9.41289,6.77698 -17.92745,11.77672 -28.12149,17.69438 -10.21356,6.0153 -0.4101,1.11322 -33.29661,18.43652 -9.99876,-4.35524 -16.34562,-8.61282 -23.76657,-12.87041 -7.42094,-4.27712 -14.66613,-8.53471 -20.89582,-12.22592 -6.24922,-3.80839 -11.60011,-7.22618 -16.5409,-10.6635 -4.96032,-3.32013 -9.2176,-6.56215 -13.27959,-9.90182 -4.06199,-3.33967 -7.3233,-6.28873 -11.09236,-9.90182 -3.76906,-3.61309 -7.9287,-7.4996 -11.48294,-11.77672 -3.57377,-4.25759 -7.14754,-9.06202 -9.72535,-13.98364 -2.55827,-4.90208 -4.55021,-11.19081 -5.74147,-15.37028 -1.19125,-4.15994 -0.97644,-6.48403 -1.19125,-9.99947 -0.19529,-3.51544 -0.19529,9.55028 0,-11.28847 0.21481,-20.83874 0.80068,-89.93666 0.99597,-113.64634"
       id="4"
       style="fill:#ffffff;fill-opacity:1;fill-rule:evenodd;stroke:none"
       inkscape:connector-curvature="0" />
    <path
       d="m 271.5565,173.83369 c 39.95594,0.46873 178.16132,0.46873 215.7738,0.46873 -0.60539,25.52599 0.19529,51.87226 0.0976,69.3518 -0.0976,17.5772 -0.31246,25.7213 -0.89832,35.97467 -0.48822,10.17524 -0.58586,18.69042 -2.1677,25.62364 -1.699,6.83558 -3.76906,10.72209 -7.22566,15.99525 -3.35895,5.27316 -6.4445,9.53075 -13.16241,15.62418 -6.73744,6.21061 -17.81028,15.17498 -26.81306,21.46371 -8.90513,6.38638 -17.00959,11.09316 -26.71541,16.7374 -9.68628,5.64423 -0.39057,1.01557 -31.65619,17.38189 -9.491,-4.06228 -15.52541,-8.1441 -22.65342,-12.10873 -7.03037,-4.08182 -13.84593,-8.04645 -19.78268,-11.56189 -5.93676,-3.61309 -11.07284,-6.83558 -15.83787,-10.0776 -4.64785,-3.14436 -8.69032,-6.19108 -12.55702,-9.33544 -3.8667,-3.14437 -7.03037,-5.91766 -10.58461,-9.35498 -3.55425,-3.41778 -7.32331,-6.56215 -10.87755,-11.09316 -3.57377,-4.53101 -7.92869,-11.36659 -10.29168,-15.99525 -2.38251,-4.62866 -3.26131,-8.41752 -4.15964,-12.03061 -0.89832,-3.59356 -0.78115,-6.36686 -0.99597,-9.4331 -0.19528,-3.04671 -0.0976,10.81974 0,-8.76907 0.0976,-19.60834 0.41011,-86.18685 0.50775,-108.86144"
       id="5"
       style="fill:#36b4c3;fill-opacity:1;fill-rule:evenodd;stroke:none"
       inkscape:connector-curvature="0" />
    <path
       d="m 392.36171,273.0472 c 6.62026,2.67564 15.5254,8.57377 22.92682,13.28055 7.40142,4.68725 14.92001,10.13619 21.63792,14.92109 6.71791,4.80443 12.43985,9.60887 18.37661,14.12035 5.91722,4.51148 7.5967,4.88255 17.28299,13.1829 -6.52262,6.81604 -24.0009,21.67854 -34.07777,29.4125 -10.07686,7.7535 -16.79477,11.44471 -26.57871,17.14754 -9.68628,5.72235 -0.39057,1.01557 -32.10536,17.34283 -9.58864,-4.06228 -15.70116,-8.10504 -23.02446,-12.06967 -7.10849,-4.06229 -14.21697,-7.92927 -20.05609,-11.54236 -5.81958,-3.59356 -10.36979,-6.99182 -15.11529,-10.31196 -4.72597,-3.32014 -9.0809,-6.4645 -13.22101,-9.68699 -4.15963,-3.22248 -7.61623,-6.19108 -11.46341,-9.78464 -3.84717,-3.59356 -4.35492,-3.69121 -11.46341,-11.79625 14.72472,-11.8939 30.42589,-23.33861 40.69804,-30.97493 10.27215,-7.65584 15.31058,-11.34705 21.05205,-15.23357 5.72194,-3.86698 8.49504,-5.97624 13.22101,-7.73396 4.7455,-1.75772 9.491,-3.04672 14.72472,-3.04672 5.33136,0 10.56508,0.0976 17.18535,2.77329"
       id="6"
       style="fill:#000066;fill-opacity:1;fill-rule:evenodd;stroke:none"
       inkscape:connector-curvature="0" />
    <path
       d="m 285.48054,327.34121 19.97797,-15.13592 22.53625,-17.55766 c 0,0 17.18535,-12.55794 17.18535,-12.55794 0,0 9.00278,-6.28873 12.9476,-8.22222 3.96435,-1.95302 7.22566,-2.87094 10.38932,-3.41779 3.16367,-0.56637 5.13608,-0.93745 8.88561,-0.74214 3.76906,0.17577 8.10446,0.74214 12.26409,1.83584 4.15964,1.11322 8.29975,3.14436 11.85399,5.37081 3.57377,2.20691 5.44854,2.94906 12.45938,7.9488 7.03037,4.9802 19.66551,14.68672 30.25012,22.34257 l 28.66829,21.0731 -53.58705,-49.23568 -0.19528,-1.75772 c 0.50774,-0.37107 2.08958,-0.1953 3.16366,-0.37107 0.89833,0 1.99194,-0.74215 3.35896,-0.74215 1.38654,0 2.87073,-0.1953 4.55021,-0.1953 1.67948,0 4.35492,0 5.74147,0.46872 1.38654,0.46873 1.87476,2.1288 2.77309,2.59752 0.8788,0.4492 2.94885,0.6445 4.33539,0.6445 1.38655,0 5.93676,0.27342 5.93676,-0.1953 0.39058,-0.0977 -2.38251,-0.27343 -3.35895,-0.54685 -0.99597,-0.27342 -2.07006,-0.46873 -2.77309,-1.289 0,0 -0.39058,-2.40221 -1.2889,-3.78886 -0.8788,-1.38664 -2.26535,-1.75772 -2.26535,-1.75772 0,0 -1.97241,-0.64449 -3.35895,-0.8398 0,0 -3.65189,0 -5.54618,0 -1.87477,0 -3.65189,0 -5.52666,0 -1.87476,0 -4.15963,0.46873 -5.54618,0 l -2.8512,-2.57799 h -2.77309 c 0.48822,-0.46872 4.15963,-1.66006 5.62429,-2.49986 1.38655,-0.37108 2.08959,-1.9335 2.96838,-2.40222 0.89833,-0.46873 2.77309,-0.46873 4.15964,-1.289 1.38654,-0.83979 2.5778,-1.01557 3.94482,-1.48429 1.38654,-0.46873 1.48419,-0.6445 2.38251,-1.11322 0.8788,-0.4492 1.77712,-1.01558 3.16367,-1.46477 1.38654,-0.46873 4.23775,0.44919 5.6243,0 1.58183,-0.1953 2.77309,-0.8398 4.06199,-1.30853 1.2889,-0.44919 6.0344,-3.4959 5.33136,-3.69121 0.0977,-0.27342 -3.35895,1.4843 -4.94079,1.85537 -1.58183,0.37108 -2.77309,0.6445 -4.45256,0.54685 -2.26535,0 -3.74954,-0.91792 -5.6243,-0.91792 -1.87477,0 -3.76906,-0.54685 -5.13608,-0.54685 -1.38654,0 -2.5778,0.35155 -3.96435,0.35155 -1.38654,0 -3.35895,1.11322 -4.7455,1.11322 -1.38654,0 -1.87476,0.74215 -4.7455,0.74215 -2.87073,0 -4.64785,1.4843 -4.7455,0.91792 l 3.86671,-4.23806 2.8512,-2.59752 4.7455,-3.69121 c 1.19126,-1.19134 1.38655,-2.30456 2.18723,-3.51544 0.78115,-1.09369 1.38655,-2.67564 2.55827,-3.69121 1.19126,-1.01557 4.062,-2.20691 5.93676,-2.94906 1.87477,-0.74215 7.12802,-1.01557 7.51859,-1.289 0.39058,-0.29295 -3.8667,-0.29295 -5.35089,-0.37107 -1.46466,-0.0977 -2.55827,-0.27342 -3.74953,0 -1.58184,0.17577 -2.1677,1.38665 -3.55425,1.83584 -1.38654,0.46872 -3.45659,0.27342 -4.7455,0.74215 -1.2889,0.46872 -1.58183,1.28899 -2.77309,1.85537 -1.19125,0.54685 -3.16366,1.11322 -4.55021,1.66007 l -3.74953,1.83584 -2.5778,1.4843 -5.13608,1.48429 1.77712,-2.96859 3.06603,-2.75376 2.77309,-5.17551 c 0.48822,-1.75772 -0.48822,-3.88651 0,-5.17551 0.48822,-1.28899 2.26534,-1.28899 2.77309,-2.59752 0.48822,-1.28899 -0.89833,-3.78886 0,-5.07785 0.87879,-1.289 2.96838,-1.289 5.62429,-2.57799 l 10.29169,-5.07786 -9.10043,2.77329 -6.81555,2.30457 -2.77309,2.57799 -2.77309,2.49986 -2.75357,2.57799 -2.77309,5.17551 -1.87476,3.14436 -3.67142,2.03115 -2.07005,0.74215 -1.19126,-5.91766 0.50775,-5.17551 2.75356,-5.07785 v -5.17551 c 0.0977,-1.66007 0.41011,-3.78887 0.89833,-5.07786 0.48822,-1.28899 1.58183,-1.83584 1.87476,-2.67564 0.29293,-0.8398 0.48822,-1.28899 0,-2.57799 -0.48822,-1.30852 -2.26534,-5.17551 -2.77309,-5.17551 v 5.17551 c 0,0 -0.19529,2.30457 -1.07408,3.59356 -0.89833,1.289 -3.67142,3.04672 -4.45257,4.15994 -0.89833,1.28899 0.0976,2.49987 -0.29293,3.59356 -0.41011,1.11322 -1.99194,1.85537 -2.38252,2.96859 -0.39057,1.09369 -0.19529,2.67564 -0.19529,3.69121 l -0.58586,2.77329 c -0.4101,0.91793 -0.80068,1.75772 -1.58183,2.57799 -0.80068,0.8398 -2.38252,1.58195 -3.35896,2.40222 l -2.77309,2.59752 v -5.17551 -5.17551 -5.07785 l -2.77309,-5.17551 v -5.17551 l -2.55827,-8.04645 -0.21482,0.29295 v 5.17551 l -2.75356,5.15598 0.39057,4.53101 2.36299,5.82001 v 5.07785 l -0.39058,4.25759 -2.75356,2.77329 -3.76906,-4.25759 -4.7455,-4.43336 -2.26534,-5.99577 -2.77309,-2.59752 c -0.8788,-1.289 -1.87477,-2.77329 -2.77309,-5.17551 -0.8788,-2.40222 -1.97241,-8.30034 -2.46063,-9.14014 l -0.29293,3.98416 v 5.15598 2.59752 l 2.75356,5.17551 v 5.07785 l 2.77309,5.17551 2.77309,2.57799 v 2.59752 2.57799 l -8.29974,-2.57799 c -1.8943,-1.30853 -1.38655,-3.88651 -2.77309,-5.17551 -1.38655,-1.28899 -3.65189,-1.28899 -5.54619,-2.59752 l -5.62429,-5.07785 -1.97241,-2.49987 c -0.60539,-0.82027 -0.70304,-1.36712 -1.77712,-2.57799 -0.70304,-0.91792 -4.55022,-5.17551 -4.55022,-4.60913 0,0.54684 3.4566,5.72235 4.3354,7.75349 0.70304,1.75772 0.70304,3.14437 1.19126,4.43336 0.70303,1.56242 1.38654,3.88652 2.77309,5.17551 1.38654,1.289 4.25728,1.289 5.62429,2.57799 l 2.7731,5.17551 2.77309,5.17551 v 2.57799 l -5.54619,-2.57799 -5.81958,-2.94907 -4.7455,-0.1953 -6.13205,-2.03114 -5.33136,-1.66007 c -1.38655,-0.8398 -2.08958,-1.75772 -3.16367,-3.14437 -0.60539,-1.48429 -3.55424,-5.82 -3.55424,-4.9802 0,0.82027 2.1677,7.75349 3.74953,9.78464 1.58183,1.66007 3.65189,1.28899 5.52665,2.59752 l 5.54618,5.15598 c 1.38655,1.30852 1.28891,2.05067 2.75357,2.59751 1.38654,0.46873 3.96434,0.17578 5.93675,0.91792 l 5.93676,3.33967 -5.33136,0.17577 -6.54215,0.74215 -3.35896,1.289 -4.7455,0.54684 -1.97241,-0.91792 -3.74953,0.1953 c -1.2889,0.17578 -2.77309,0.91792 -4.15964,0.72262 -1.38654,-0.44919 -2.36298,-0.82027 -4.23775,-1.83584 l -6.63979,-4.99973 5.93676,7.77302 3.4566,2.40222 h 5.64382 l 5.52665,2.57799 h 5.54618 5.52666 5.64382 v 2.59752 c -0.50775,0.44919 -1.48419,-0.46873 -2.87073,0 -1.38655,0.44919 -3.65189,1.28899 -5.54618,2.57799 -1.67948,1.11322 -3.0465,3.32013 -4.53069,4.25758 -1.38654,0.82027 -3.67141,0.82027 -4.55021,1.289 -0.89832,0.44919 -0.29293,1.38664 -1.97241,2.12879 -1.67948,0.72262 -5.83911,2.30457 -8.41691,2.57799 -2.55828,0.27342 -7.20613,-1.11322 -7.20613,-0.6445 0,0.46873 4.64785,3.14437 7.20613,3.24202 2.5778,0.0781 6.13204,-2.12879 8.41691,-2.59752 h 5.52665 8.29975 c 0,0 -53.17695,50.89575 -53.17695,50.89575 z"
       id="7"
       style="fill:#ffffff;fill-opacity:1;fill-rule:evenodd;stroke:none"
       inkscape:connector-curvature="0" />
    <path
       d="m 313.77779,112.27444 c 1.79665,0 3.57377,0 5.35089,0 0,7.22618 0,14.45236 0,21.67855 0,3.76933 -0.46869,6.75745 -1.36702,8.9839 -0.89832,2.24597 -2.5778,4.00369 -4.97984,5.40987 -2.38252,1.4257 -5.58524,2.08973 -9.47148,2.08973 -3.78858,0 -6.91319,-0.58591 -9.31524,-1.81631 -2.38251,-1.21087 -4.15963,-2.94906 -5.1556,-5.27316 -0.99597,-2.28504 -1.54278,-5.40987 -1.54278,-9.39403 0,-7.22619 0,-14.45237 0,-21.67855 1.77712,0 3.57377,0 5.3509,0 0,7.22618 0,14.45236 0,21.65901 0,3.26155 0.35151,5.64424 0.99596,7.18713 0.62493,1.58194 1.77713,2.73423 3.37849,3.59356 1.5623,0.85933 3.53471,1.24993 5.81958,1.24993 3.94482,0 6.75697,-0.80074 8.41692,-2.48034 1.67948,-1.6796 2.51922,-4.84349 2.51922,-9.55028 0,-7.20665 0,-14.43283 0,-21.65901"
       id="8"
       style="fill:#ffffff;fill-opacity:1;fill-rule:evenodd;stroke:none"
       inkscape:connector-curvature="0" />
    <path
       d="m 313.77779,112.27444 c 1.79665,0 3.57377,0 5.35089,0 0,7.22618 0,14.45236 0,21.67855 0,3.76933 -0.46869,6.75745 -1.36702,8.9839 -0.89832,2.24597 -2.5778,4.00369 -4.97984,5.40987 -2.38252,1.4257 -5.58524,2.08973 -9.47148,2.08973 -3.78858,0 -6.91319,-0.58591 -9.31524,-1.81631 -2.38251,-1.21087 -4.15963,-2.94906 -5.1556,-5.27316 -0.99597,-2.28504 -1.54278,-5.40987 -1.54278,-9.39403 0,-7.22619 0,-14.45237 0,-21.67855 1.77712,0 3.57377,0 5.3509,0 0,7.22618 0,14.45236 0,21.65901 0,3.26155 0.35151,5.64424 0.99596,7.18713 0.62493,1.58194 1.77713,2.73423 3.37849,3.59356 1.5623,0.85933 3.53471,1.24993 5.81958,1.24993 3.94482,0 6.75697,-0.80074 8.41692,-2.48034 1.67948,-1.6796 2.51922,-4.84349 2.51922,-9.55028 0,-7.20665 0,-14.43283 0,-21.65901"
       id="9"
       style="fill:none;stroke:#ffffff;stroke-width:1.24984372px;stroke-linecap:round;stroke-linejoin:round;stroke-dasharray:none;stroke-opacity:1"
       inkscape:connector-curvature="0" />
    <path
       d="m 342.40702,150.43649 c 0,-12.71417 0,-25.42835 0,-38.16205 8.22163,0 16.44325,0 24.66488,0 0,1.50383 0,3.00766 0,4.51148 -6.60074,0 -13.221,0 -19.82174,0 0,3.94511 0,7.87068 0,11.81579 5.72194,0 11.44388,0 17.1463,0 0,1.50382 0,3.00765 0,4.51148 -5.70242,0 -11.42436,0 -17.1463,0 0,5.78094 0,11.54235 0,17.3233 -1.62089,0 -3.22225,0 -4.84314,0"
       id="10"
       style="fill:#ffffff;fill-opacity:1;fill-rule:evenodd;stroke:none"
       inkscape:connector-curvature="0" />
    <path
       d="m 342.40702,150.43649 c 0,-12.71417 0,-25.42835 0,-38.16205 8.22163,0 16.44325,0 24.66488,0 0,1.50383 0,3.00766 0,4.51148 -6.60074,0 -13.221,0 -19.82174,0 0,3.94511 0,7.87068 0,11.81579 5.72194,0 11.44388,0 17.1463,0 0,1.50382 0,3.00765 0,4.51148 -5.70242,0 -11.42436,0 -17.1463,0 0,5.78094 0,11.54235 0,17.3233 -1.62089,0 -3.22225,0 -4.84314,0"
       id="11"
       style="fill:none;stroke:#ffffff;stroke-width:1.24984372px;stroke-linecap:round;stroke-linejoin:round;stroke-dasharray:none;stroke-opacity:1"
       inkscape:connector-curvature="0" />
    <path
       d="m 414.31209,136.88252 c 1.64042,0.41013 3.30037,0.80074 4.94079,1.2304 -1.03503,4.0037 -2.92932,7.05041 -5.58524,9.15967 -2.67545,2.14833 -5.99535,3.1639 -9.88158,3.1639 -4.04246,0 -7.30377,-0.78121 -9.82299,-2.44128 -2.49969,-1.62101 -4.4721,-3.9451 -5.761,-7.01135 -1.2889,-3.08577 -1.99194,-6.36685 -1.99194,-9.90182 0,-3.84745 0.78116,-7.18712 2.24582,-10.05806 1.46466,-2.87094 3.61283,-5.01927 6.34686,-6.52309 2.7145,-1.50383 5.761,-2.22645 9.06137,-2.22645 3.73,0 6.89367,0.91792 9.43241,2.83188 2.51922,1.91397 4.3354,4.53101 5.31184,7.92927 -1.6209,0.39061 -3.24179,0.74215 -4.86268,1.13276 -0.85926,-2.69517 -2.12864,-4.62867 -3.76906,-5.85907 -1.64042,-1.24993 -3.73,-1.85537 -6.22969,-1.85537 -2.87073,0 -5.27277,0.66403 -7.1866,2.05067 -1.91382,1.36712 -3.30037,3.1639 -4.06199,5.44893 -0.78115,2.30457 -1.19126,4.66773 -1.19126,7.109 0,3.14437 0.48822,5.85907 1.40608,8.20269 0.89832,2.34363 2.36298,4.08182 4.31586,5.25363 1.95288,1.19135 4.08152,1.73819 6.34687,1.73819 2.77309,0 5.13607,-0.76168 7.03037,-2.36315 1.89429,-1.60148 3.22225,-3.92558 3.90576,-7.01135"
       id="12"
       style="fill:#ffffff;fill-opacity:1;fill-rule:evenodd;stroke:none"
       inkscape:connector-curvature="0" />
    <path
       d="m 414.31209,136.88252 c 1.64042,0.41013 3.30037,0.80074 4.94079,1.2304 -1.03503,4.0037 -2.92932,7.05041 -5.58524,9.15967 -2.67545,2.14833 -5.99535,3.1639 -9.88158,3.1639 -4.04246,0 -7.30377,-0.78121 -9.82299,-2.44128 -2.49969,-1.62101 -4.4721,-3.9451 -5.761,-7.01135 -1.2889,-3.08577 -1.99194,-6.36685 -1.99194,-9.90182 0,-3.84745 0.78116,-7.18712 2.24582,-10.05806 1.46466,-2.87094 3.61283,-5.01927 6.34686,-6.52309 2.7145,-1.50383 5.761,-2.22645 9.06137,-2.22645 3.73,0 6.89367,0.91792 9.43241,2.83188 2.51922,1.91397 4.3354,4.53101 5.31184,7.92927 -1.6209,0.39061 -3.24179,0.74215 -4.86268,1.13276 -0.85926,-2.69517 -2.12864,-4.62867 -3.76906,-5.85907 -1.64042,-1.24993 -3.73,-1.85537 -6.22969,-1.85537 -2.87073,0 -5.27277,0.66403 -7.1866,2.05067 -1.91382,1.36712 -3.30037,3.1639 -4.06199,5.44893 -0.78115,2.30457 -1.19126,4.66773 -1.19126,7.109 0,3.14437 0.48822,5.85907 1.40608,8.20269 0.89832,2.34363 2.36298,4.08182 4.31586,5.25363 1.95288,1.19135 4.08152,1.73819 6.34687,1.73819 2.77309,0 5.13607,-0.76168 7.03037,-2.36315 1.89429,-1.60148 3.22225,-3.92558 3.90576,-7.01135"
       id="13"
       style="fill:none;stroke:#ffffff;stroke-width:1.24984372px;stroke-linecap:round;stroke-linejoin:round;stroke-dasharray:none;stroke-opacity:1"
       inkscape:connector-curvature="0" />
    <path
       d="m 455.10777,135.33963 c 0,-1.44524 0,-2.89047 0,-4.33571 5.23372,0 10.46744,0 15.70116,-0.0195 0,4.57007 0,9.12061 0,13.69069 -2.38252,1.93349 -4.92126,3.33966 -7.46001,4.31617 -2.53874,0.99605 -5.17513,1.44524 -7.88963,1.44524 -3.63236,0 -6.97179,-0.74215 -9.90111,-2.3241 -2.96838,-1.56241 -5.27278,-3.76933 -6.75697,-6.73792 -1.48419,-2.94906 -2.28487,-6.21061 -2.28487,-9.84323 0,-3.59356 0.80068,-6.93323 2.28487,-10.05806 1.46466,-3.10531 3.67142,-5.39034 6.5031,-6.93323 2.81214,-1.52336 6.09298,-2.26551 9.78393,-2.26551 2.67545,0 5.11655,0.42967 7.28424,1.289 2.12864,0.89839 3.84718,2.08973 5.07749,3.63262 1.21079,1.54289 2.18723,3.53497 2.79262,6.03484 -1.46466,0.41013 -2.94885,0.80073 -4.41351,1.21087 -0.5468,-1.89443 -1.24984,-3.33967 -2.07005,-4.43336 -0.82021,-1.09369 -2.01147,-1.93349 -3.53471,-2.59752 -1.54278,-0.62497 -3.24179,-0.95698 -5.11655,-0.95698 -2.24582,0 -4.17917,0.33201 -5.81959,1.01557 -1.64042,0.68356 -2.96838,1.58195 -3.94482,2.69517 -0.99597,1.11322 -1.79665,2.30457 -2.34345,3.65215 -0.91786,2.28504 -1.42561,4.74585 -1.42561,7.42149 0,3.3006 0.6054,6.03483 1.71854,8.26128 1.13267,2.22644 2.79262,3.82792 4.96032,4.92161 2.16769,1.11323 4.47209,1.62101 6.93272,1.62101 2.12864,0 4.1987,-0.3906 6.21016,-1.2304 2.031,-0.82027 3.57378,-1.66007 4.6088,-2.59752 0,-2.28504 0,-4.5896 0,-6.87464 -3.63236,0 -7.26471,0 -10.89707,0"
       id="14"
       style="fill:#ffffff;fill-opacity:1;fill-rule:evenodd;stroke:none"
       inkscape:connector-curvature="0" />
    <path
       d="m 455.10777,135.33963 c 0,-1.44524 0,-2.89047 0,-4.33571 5.23372,0 10.46744,0 15.70116,-0.0195 0,4.57007 0,9.12061 0,13.69069 -2.38252,1.93349 -4.92126,3.33966 -7.46001,4.31617 -2.53874,0.99605 -5.17513,1.44524 -7.88963,1.44524 -3.63236,0 -6.97179,-0.74215 -9.90111,-2.3241 -2.96838,-1.56241 -5.27278,-3.76933 -6.75697,-6.73792 -1.48419,-2.94906 -2.28487,-6.21061 -2.28487,-9.84323 0,-3.59356 0.80068,-6.93323 2.28487,-10.05806 1.46466,-3.10531 3.67142,-5.39034 6.5031,-6.93323 2.81214,-1.52336 6.09298,-2.26551 9.78393,-2.26551 2.67545,0 5.11655,0.42967 7.28424,1.289 2.12864,0.89839 3.84718,2.08973 5.07749,3.63262 1.21079,1.54289 2.18723,3.53497 2.79262,6.03484 -1.46466,0.41013 -2.94885,0.80073 -4.41351,1.21087 -0.5468,-1.89443 -1.24984,-3.33967 -2.07005,-4.43336 -0.82021,-1.09369 -2.01147,-1.93349 -3.53471,-2.59752 -1.54278,-0.62497 -3.24179,-0.95698 -5.11655,-0.95698 -2.24582,0 -4.17917,0.33201 -5.81959,1.01557 -1.64042,0.68356 -2.96838,1.58195 -3.94482,2.69517 -0.99597,1.11322 -1.79665,2.30457 -2.34345,3.65215 -0.91786,2.28504 -1.42561,4.74585 -1.42561,7.42149 0,3.3006 0.6054,6.03483 1.71854,8.26128 1.13267,2.22644 2.79262,3.82792 4.96032,4.92161 2.16769,1.11323 4.47209,1.62101 6.93272,1.62101 2.12864,0 4.1987,-0.3906 6.21016,-1.2304 2.031,-0.82027 3.57378,-1.66007 4.6088,-2.59752 0,-2.28504 0,-4.5896 0,-6.87464 -3.63236,0 -7.26471,0 -10.89707,0"
       id="15"
       style="fill:none;stroke:#ffffff;stroke-width:1.24984372px;stroke-linecap:round;stroke-linejoin:round;stroke-dasharray:none;stroke-opacity:1"
       inkscape:connector-curvature="0" />
    <path
       d="m 497.01659,388.35362 62.58983,-49.70441 -5.37042,30.15466 30.38682,2.79282 -62.5703,46.91158 z"
       id="16"
       style="fill:#000066;fill-opacity:1;fill-rule:evenodd;stroke:none"
       inkscape:connector-curvature="0" />
    <path
       d="m 261.36247,386.06858 -62.58983,-49.54817 5.37042,30.07654 -30.40635,2.77329 62.58982,46.77488 z"
       id="17"
       style="fill:#000066;fill-opacity:1;fill-rule:evenodd;stroke:none"
       inkscape:connector-curvature="0" />
    <path
       d="m 227.61669,386.26388 h 33.74578 l -30.67976,35.19346 h -33.12086 z"
       id="18"
       style="fill:#00002c;fill-opacity:1;fill-rule:evenodd;stroke:none"
       inkscape:connector-curvature="0" />
    <path
       d="m 531.28965,390.0918 -34.27306,-1.19134 30.69929,35.23252 32.16394,-0.62497 z"
       id="19"
       style="fill:#00002c;fill-opacity:1;fill-rule:evenodd;stroke:none"
       inkscape:connector-curvature="0" />
    <path
       d="m 198.18677,421.34015 c 8.29975,-10.019 19.9975,-25.03774 27.51609,-33.00607 8.31927,6.67934 9.80346,8.61283 17.61499,13.16337 7.83105,4.55054 19.41163,10.39008 29.09792,14.27659 9.70582,3.90605 18.90389,6.48403 28.90264,8.90578 9.99875,2.40222 20.4076,4.35524 31.08986,5.74189 10.68226,1.38664 21.87226,2.05067 32.86698,2.42174 10.99472,0.37108 19.89986,0.82027 33.25756,-0.1953 13.35771,-1.01557 31.87102,-2.96859 46.73244,-5.93719 14.84189,-2.96859 31.07033,-8.06598 42.55327,-12.05014 11.48294,-3.98416 19.09917,-7.96833 26.53965,-12.05015 7.42095,-4.08181 10.29168,-6.8551 17.81027,-12.61652 10.29168,12.24545 20.77865,25.03774 27.71138,33.74822 -8.51456,7.98786 -13.45535,11.03458 -21.96991,16.50304 -8.51456,5.48799 -17.71263,11.5033 -29.09792,16.32726 -11.3853,4.82396 -22.86823,8.90578 -39.21385,12.79229 -16.32608,3.90605 -38.90138,9.00343 -58.78171,10.56585 -19.89985,1.58195 -42.76809,0.0976 -60.59789,-1.11322 -17.81027,-1.19135 -30.97269,-2.67564 -46.32233,-6.11296 -15.33012,-3.43732 -32.26159,-8.90578 -45.73647,-14.27659 -13.45535,-5.37081 -24.84064,-11.77672 -34.83939,-17.98733 -9.99875,-6.21061 -13.06477,-9.27686 -25.13358,-19.10056"
       id="20"
       style="fill:#000066;fill-opacity:1;fill-rule:evenodd;stroke:none"
       inkscape:connector-curvature="0" />
    <path
       d="m 234.35413,432.9411 c -1.13268,-0.64449 -2.05053,-1.30852 -2.75357,-2.03114 -0.72256,-0.70309 -1.36701,-1.4257 -1.89429,-2.18738 0.70303,-1.24994 1.40607,-2.48034 2.10911,-3.73027 0.11717,0.0781 0.21482,0.13671 0.33199,0.1953 0.35152,1.07416 0.8788,2.05067 1.5623,2.91 0.68351,0.85933 1.44514,1.52336 2.28487,1.99208 0.19529,0.11718 0.48822,0.2539 0.8788,0.41014 0.37105,0.13671 0.68351,0.21483 0.95691,0.23436 0.31246,0.0195 0.62492,-0.0195 0.91786,-0.13671 0.31246,-0.11718 0.5468,-0.35155 0.74209,-0.68356 0.23435,-0.3906 0.25388,-0.80074 0.11717,-1.21087 -0.1367,-0.39061 -0.39057,-0.76168 -0.72256,-1.11323 -0.42964,-0.42966 -0.8788,-0.85933 -1.36702,-1.30852 -0.50775,-0.4492 -0.95691,-0.89839 -1.34749,-1.36712 -0.87879,-1.07416 -1.38654,-2.08973 -1.46466,-3.1053 -0.0586,-0.99604 0.19529,-2.03114 0.80068,-3.12484 0.82021,-1.44523 2.08959,-2.28503 3.74953,-2.55845 1.67948,-0.27343 3.37849,0.11718 5.11655,1.11322 0.8788,0.48825 1.69901,1.07416 2.46063,1.75772 0.7421,0.66403 1.38655,1.34758 1.87477,2.0702 -0.68351,1.19134 -1.34749,2.38269 -2.031,3.57403 -0.0976,-0.0586 -0.21482,-0.13671 -0.31246,-0.1953 -0.25387,-0.80074 -0.70304,-1.58195 -1.26937,-2.38269 -0.58586,-0.80074 -1.30843,-1.40617 -2.12864,-1.8749 -0.33199,-0.1953 -0.62492,-0.33201 -0.91786,-0.42966 -0.29293,-0.0781 -0.60539,-0.15624 -0.95691,-0.17578 -0.29293,0 -0.58586,0.0391 -0.87879,0.15625 -0.29293,0.13671 -0.52728,0.33201 -0.68351,0.60543 -0.21482,0.41014 -0.25388,0.80074 -0.11717,1.17182 0.11717,0.3906 0.50774,0.89839 1.17172,1.52335 0.41011,0.39061 0.82021,0.76168 1.23032,1.15229 0.37105,0.37107 0.78115,0.78121 1.19126,1.28899 0.78115,0.95698 1.24984,1.91396 1.36701,2.85141 0.11718,0.93745 -0.1367,1.97255 -0.74209,3.04672 -0.8788,1.54288 -2.1677,2.4608 -3.82765,2.77329 -1.67948,0.31248 -3.49565,-0.11718 -5.44854,-1.21088"
       id="21"
       style="fill:#ffffff;fill-opacity:1;fill-rule:evenodd;stroke:none"
       inkscape:connector-curvature="0" />
    <path
       d="m 250.28963,441.43675 c -2.24581,-0.91792 -3.78859,-2.14832 -4.53068,-3.73027 -0.76163,-1.60148 -0.7421,-3.39826 0.11717,-5.46846 1.44513,-3.53497 2.89027,-7.06994 4.3354,-10.60491 1.40607,0.5859 2.81214,1.15228 4.21822,1.71866 -1.4256,3.45685 -2.83168,6.91369 -4.23775,10.35101 -0.48822,1.15229 -0.6054,2.10927 -0.39058,2.85141 0.19529,0.74215 0.80068,1.30853 1.77712,1.71866 0.97644,0.41014 1.79665,0.42967 2.48016,0.0586 0.66398,-0.35154 1.24985,-1.13275 1.73806,-2.32409 1.42561,-3.43732 2.83168,-6.89417 4.23776,-10.35102 1.40607,0.58591 2.81214,1.15229 4.21822,1.73819 -1.44513,3.51544 -2.89026,7.05041 -4.3354,10.56585 -0.83974,2.05067 -2.07005,3.3592 -3.69094,3.98417 -1.62089,0.64449 -3.61283,0.44919 -5.93676,-0.50779"
       id="22"
       style="fill:#ffffff;fill-opacity:1;fill-rule:evenodd;stroke:none"
       inkscape:connector-curvature="0" />
    <path
       d="m 277.90337,438.78064 c -0.33199,0.82027 -0.78116,1.54289 -1.34749,2.20691 -0.54681,0.6445 -1.17173,1.11323 -1.85524,1.42571 -0.4101,0.1953 -0.85927,0.33201 -1.30843,0.46873 -0.44916,0.11718 -0.93738,0.17577 -1.4256,0.17577 -0.50775,0.0195 -1.0155,-0.0391 -1.54278,-0.11718 -0.5468,-0.0977 -1.13267,-0.29296 -1.73806,-0.52732 -0.7421,-0.31248 -1.50372,-0.62497 -2.24581,-0.93745 -0.80069,1.93349 -1.58184,3.86698 -2.38252,5.82001 -1.4256,-0.60544 -2.87073,-1.19135 -4.29634,-1.77725 2.42158,-5.91766 4.84315,-11.81579 7.26472,-17.73344 2.20675,0.89839 4.43304,1.81631 6.63979,2.7147 0.99597,0.41013 1.81618,0.85933 2.46063,1.32805 0.62493,0.48826 1.1522,1.0351 1.58184,1.69913 0.44916,0.70309 0.70303,1.4843 0.76162,2.38269 0.0391,0.89839 -0.1367,1.83584 -0.56633,2.87094 z m -4.45257,-1.69913 c 0.19529,-0.50778 0.25387,-0.97651 0.17576,-1.44524 -0.0781,-0.44919 -0.25388,-0.82026 -0.50775,-1.07416 -0.33199,-0.35154 -0.68351,-0.60543 -1.03503,-0.80074 -0.37105,-0.17577 -0.8788,-0.3906 -1.50372,-0.66402 -0.19529,-0.0781 -0.4101,-0.15625 -0.60539,-0.23437 -0.72257,1.75772 -1.46466,3.53497 -2.18723,5.31222 0.0976,0.0391 0.19529,0.0781 0.31246,0.11718 0.39058,0.15625 0.78116,0.33202 1.1522,0.46873 0.35152,0.11718 0.68351,0.23436 0.97644,0.29295 0.23435,0.0586 0.50775,0.0781 0.82021,0.0586 0.31247,0 0.54681,-0.0391 0.7421,-0.13671 0.4101,-0.17577 0.74209,-0.3906 0.97644,-0.66403 0.23435,-0.29295 0.46869,-0.70308 0.68351,-1.2304 z"
       id="23"
       style="fill:#ffffff;fill-opacity:1;fill-rule:evenodd;stroke:none"
       inkscape:connector-curvature="0" />
    <path
       d="m 289.93311,456.10394 c -1.60136,-0.50778 -3.20272,-1.01557 -4.78456,-1.52335 -0.72256,-2.7147 -1.50371,-5.39034 -2.20675,-8.10504 -0.46869,-0.13672 -0.93738,-0.29296 -1.40608,-0.4492 -0.72256,2.22645 -1.44513,4.47242 -2.14816,6.69887 -1.30843,-0.41014 -2.61686,-0.8398 -3.90577,-1.24994 1.95288,-6.09343 3.90577,-12.16732 5.85865,-18.26075 2.08958,0.68356 4.19869,1.34758 6.28827,2.01161 0.8788,0.29295 1.60136,0.58591 2.20676,0.91792 0.60539,0.35154 1.11314,0.78121 1.52324,1.36712 0.42964,0.60543 0.72257,1.26946 0.82021,2.01161 0.11718,0.76168 0.0391,1.62101 -0.29293,2.61705 -0.44916,1.38664 -1.09361,2.42174 -1.89429,3.12483 -0.80068,0.72262 -1.75759,1.17182 -2.83168,1.40618 0.89833,3.14436 1.87477,6.28873 2.77309,9.43309 z m -2.24581,-14.68672 c 0.1367,-0.4492 0.19529,-0.87886 0.15623,-1.24993 -0.0586,-0.39061 -0.23435,-0.72262 -0.50775,-1.01558 -0.21482,-0.1953 -0.44916,-0.35154 -0.74209,-0.48825 -0.29294,-0.13671 -0.66398,-0.27342 -1.11315,-0.41014 -0.42963,-0.13671 -0.87879,-0.29295 -1.30843,-0.42966 -0.52727,1.64054 -1.05455,3.28108 -1.58183,4.92161 0.37105,0.11719 0.74209,0.23437 1.11314,0.35155 0.54681,0.17577 1.03503,0.29295 1.44513,0.33201 0.39058,0.0586 0.78116,0 1.11315,-0.17577 0.33199,-0.15624 0.60539,-0.35154 0.83973,-0.6445 0.21482,-0.27342 0.41011,-0.68355 0.58587,-1.19134 z"
       id="24"
       style="fill:#ffffff;fill-opacity:1;fill-rule:evenodd;stroke:none"
       inkscape:connector-curvature="0" />
    <path
       d="m 290.46039,455.57663 c 3.28084,-5.56611 6.65932,-11.05411 9.94016,-16.62022 1.38655,0.37108 2.77309,0.74215 4.15964,1.11322 0.0586,6.46451 0.23434,12.90948 0.31246,19.35445 -1.30843,-0.35154 -2.61686,-0.70309 -3.92529,-1.05463 0.0195,-1.30853 0.0195,-2.61705 0.0391,-3.92557 -1.60136,-0.41014 -3.1832,-0.8398 -4.78456,-1.26947 -0.62492,1.15228 -1.2889,2.28504 -1.91382,3.41779 -1.2889,-0.33201 -2.55828,-0.68356 -3.82765,-1.01557 z m 10.56508,-4.60913 c 0.0195,-2.10927 0,-4.23806 0.0195,-6.34732 -1.03502,1.85537 -2.08958,3.67168 -3.12461,5.52705 1.03503,0.27342 2.07006,0.54684 3.10508,0.82027 z"
       id="25"
       style="fill:#ffffff;fill-opacity:1;fill-rule:evenodd;stroke:none"
       inkscape:connector-curvature="0" />
    <path
       d="m 330.67021,454.11186 c -0.44917,2.91 -1.56231,5.05833 -3.33943,6.50356 -1.77712,1.44524 -4.00341,1.9335 -6.65933,1.52336 -2.65591,-0.41013 -4.62832,-1.56242 -5.87817,-3.49591 -1.23031,-1.93349 -1.65995,-4.31618 -1.21078,-7.16759 0.44916,-2.89047 1.5623,-5.03879 3.31989,-6.50356 1.77713,-1.44524 4.00341,-1.95302 6.65933,-1.54289 2.65592,0.41014 4.62833,1.56242 5.87817,3.47638 1.24984,1.91396 1.67948,4.29665 1.23031,7.20665 z m -4.56975,-0.72262 c 0.17576,-1.07416 0.19529,-1.99208 0.0976,-2.77329 -0.0976,-0.78121 -0.29293,-1.44523 -0.58586,-1.99208 -0.29293,-0.54685 -0.68351,-0.95698 -1.11314,-1.24993 -0.44916,-0.29296 -0.93739,-0.46873 -1.44513,-0.54685 -0.54681,-0.0781 -1.05456,-0.0586 -1.52325,0.0586 -0.46869,0.13671 -0.95691,0.41014 -1.44513,0.85933 -0.42964,0.42967 -0.82021,0.99604 -1.17173,1.73819 -0.33199,0.72262 -0.58587,1.62101 -0.76163,2.69517 -0.17576,1.09369 -0.19528,2.03114 -0.0976,2.79282 0.0976,0.76168 0.31246,1.40618 0.58586,1.97255 0.29293,0.54685 0.68351,0.97651 1.13267,1.24994 0.44916,0.29295 0.93738,0.48825 1.44513,0.56637 0.50775,0.0781 1.05456,0.0391 1.56231,-0.11718 0.52727,-0.15624 1.01549,-0.42966 1.4256,-0.87886 0.46869,-0.44919 0.85927,-1.01557 1.17173,-1.6796 0.29293,-0.66402 0.5468,-1.56241 0.72256,-2.69517 z"
       id="26"
       style="fill:#ffffff;fill-opacity:1;fill-rule:evenodd;stroke:none"
       inkscape:connector-curvature="0" />
    <path
       d="m 352.17142,465.30268 c -1.65995,-0.11718 -3.33942,-0.21484 -5.0189,-0.33202 0.29293,-4.10134 0.56633,-8.20269 0.85927,-12.32356 -1.38655,2.57798 -2.83168,5.13644 -4.1987,7.6949 -1.1522,-0.0781 -2.3044,-0.15624 -3.43707,-0.23436 -1.0155,-2.73423 -2.08958,-5.44893 -3.10508,-8.18316 -0.29293,4.10134 -0.56633,8.20269 -0.85927,12.30403 -1.58183,-0.11718 -3.16366,-0.21483 -4.7455,-0.33201 0.42964,-6.19108 0.85927,-12.38216 1.2889,-18.55371 1.93336,0.11718 3.86671,0.2539 5.80006,0.39061 1.24984,3.16389 2.5778,6.30826 3.82765,9.47215 1.65995,-2.96859 3.39801,-5.89812 5.05796,-8.86672 1.93335,0.13672 3.8667,0.27343 5.80005,0.41014 -0.4101,6.17155 -0.83973,12.36263 -1.26937,18.55371"
       id="27"
       style="fill:#ffffff;fill-opacity:1;fill-rule:evenodd;stroke:none"
       inkscape:connector-curvature="0" />
    <path
       d="m 371.2706,465.81046 c -1.40608,0 -2.79262,0 -4.1987,0 -2.18722,-4.41383 -4.49162,-8.76907 -6.67885,-13.1829 0,4.3943 0,8.7886 0,13.1829 -1.32796,0 -2.65592,0 -3.98388,0 0,-6.30826 0,-12.61652 0,-18.92478 1.77712,0 3.57377,0 5.3509,0 1.81618,3.63262 3.71047,7.22618 5.52665,10.83927 0,-3.61309 0,-7.22618 0,-10.83927 1.32796,0 2.65592,0 3.98388,0 0,6.30826 0,12.61652 0,18.92478"
       id="28"
       style="fill:#ffffff;fill-opacity:1;fill-rule:evenodd;stroke:none"
       inkscape:connector-curvature="0" />
    <path
       d="m 379.02353,466.43543 c -1.58183,0 -3.16366,0 -4.7455,0 0,-1.11322 0,-2.22645 0,-3.3592 0.42964,0 0.83974,0 1.26938,0 0,-4.15993 0,-8.3394 0,-12.51887 -0.42964,0 -0.83974,0 -1.26938,0 0,-1.11322 0,-2.22644 0,-3.3592 1.58184,0 3.16367,0 4.7455,0 0,1.13276 0,2.24598 0,3.3592 -0.4101,0 -0.83974,0 -1.26937,0 0,4.17947 0,8.35894 0,12.51887 0.42963,0 0.85927,0 1.26937,0 0,1.13275 0,2.24598 0,3.3592"
       id="29"
       style="fill:#ffffff;fill-opacity:1;fill-rule:evenodd;stroke:none"
       inkscape:connector-curvature="0" />
    <path
       d="m 388.00678,466.43543 c -1.24984,0 -2.36298,-0.13671 -3.31989,-0.41013 -0.95691,-0.27343 -1.83571,-0.60544 -2.65592,-1.01558 0,-1.48429 0,-2.94906 0,-4.41383 0.11717,0 0.25387,0 0.37105,0 0.82021,0.78121 1.73806,1.38665 2.73403,1.81631 0.99597,0.42967 1.95288,0.6445 2.89026,0.6445 0.23435,0 0.54681,-0.0391 0.93739,-0.0976 0.39057,-0.0586 0.70303,-0.13671 0.93738,-0.27342 0.2734,-0.13671 0.52728,-0.33202 0.72256,-0.60544 0.19529,-0.23436 0.29294,-0.58591 0.29294,-0.99604 0,-0.4492 -0.15623,-0.8398 -0.46869,-1.13275 -0.33199,-0.29296 -0.72257,-0.48826 -1.17173,-0.62497 -0.56634,-0.17577 -1.1522,-0.33201 -1.79665,-0.48826 -0.62493,-0.13671 -1.23032,-0.33201 -1.77713,-0.54684 -1.26937,-0.50779 -2.20675,-1.17181 -2.73403,-2.03114 -0.5468,-0.87886 -0.83974,-1.9335 -0.83974,-3.22249 0,-1.73819 0.66398,-3.12484 1.95288,-4.21853 1.28891,-1.09369 2.92933,-1.62101 4.88221,-1.62101 0.99596,0 1.95288,0.11719 2.92932,0.35155 0.95691,0.21483 1.8357,0.50778 2.59733,0.89839 0,1.40617 0,2.83188 0,4.23806 -0.11717,0 -0.23435,0 -0.37105,0 -0.58586,-0.58591 -1.34749,-1.07417 -2.22628,-1.4843 -0.8788,-0.42967 -1.77712,-0.62497 -2.71451,-0.62497 -0.37104,0 -0.68351,0.0195 -0.97644,0.0976 -0.2734,0.0586 -0.58586,0.17578 -0.89832,0.33202 -0.25388,0.13671 -0.48822,0.31248 -0.66398,0.5859 -0.19529,0.2539 -0.29293,0.56638 -0.29293,0.87886 0,0.48826 0.15623,0.85933 0.44916,1.13276 0.31246,0.29295 0.87879,0.52731 1.73806,0.76167 0.54681,0.13672 1.07409,0.27343 1.60136,0.41014 0.50775,0.13671 1.05456,0.29295 1.6209,0.54685 1.13267,0.46872 2.01146,1.07416 2.55827,1.8749 0.54681,0.7812 0.82021,1.81631 0.82021,3.1053 0,1.85537 -0.64445,3.32014 -1.91382,4.45289 -1.28891,1.13275 -3.02697,1.6796 -5.2142,1.6796"
       id="30"
       style="fill:#ffffff;fill-opacity:1;fill-rule:evenodd;stroke:none"
       inkscape:connector-curvature="0" />
    <path
       d="m 416.88989,463.58402 c -4.43304,0.31248 -8.88561,0.60543 -13.31865,0.91792 -0.42963,-6.28873 -0.85926,-12.59699 -1.30843,-18.88572 1.67948,-0.11718 3.35896,-0.23437 5.01891,-0.33202 0.35152,5.07786 0.70303,10.17525 1.05455,15.27263 2.77309,-0.1953 5.54618,-0.3906 8.31928,-0.56637 0.0781,1.19134 0.15623,2.40221 0.23434,3.59356"
       id="31"
       style="fill:#ffffff;fill-opacity:1;fill-rule:evenodd;stroke:none"
       inkscape:connector-curvature="0" />
    <path
       d="m 425.67785,462.78328 c -2.4411,0.35154 -4.43303,0.0781 -5.91722,-0.91792 -1.48419,-0.99604 -2.42158,-2.59752 -2.75357,-4.8435 -0.56633,-3.84745 -1.13267,-7.67537 -1.699,-11.52282 1.54277,-0.23437 3.06602,-0.4492 4.58927,-0.68356 0.56633,3.7498 1.11314,7.4996 1.67947,11.2494 0.17576,1.24994 0.56634,2.14833 1.13268,2.69517 0.56633,0.54685 1.38654,0.74215 2.46063,0.58591 1.07408,-0.15624 1.79665,-0.56638 2.20675,-1.2304 0.41011,-0.68356 0.50775,-1.66007 0.33199,-2.94907 -0.56633,-3.7498 -1.11314,-7.4996 -1.67948,-11.2494 1.54278,-0.23437 3.06603,-0.4492 4.6088,-0.68356 0.56634,3.82792 1.13267,7.67538 1.69901,11.5033 0.33199,2.22644 -0.0781,4.00369 -1.17173,5.40987 -1.11314,1.38664 -2.94885,2.2655 -5.4876,2.63658"
       id="32"
       style="fill:#ffffff;fill-opacity:1;fill-rule:evenodd;stroke:none"
       inkscape:connector-curvature="0" />
    <path
       d="m 450.53803,457.97884 c -1.56231,0.33202 -3.12461,0.68356 -4.70645,1.03511 -1.4256,-1.69913 -2.90979,-3.33967 -4.33539,-5.0388 -0.62492,2.14832 -1.2889,4.25759 -1.91382,6.40591 -1.48419,0.33202 -2.98791,0.6445 -4.4721,0.97651 1.05455,-3.39826 2.18723,-6.75745 3.24178,-10.15571 -2.28487,-2.59752 -4.66738,-5.15598 -6.95225,-7.77303 1.5623,-0.33201 3.1246,-0.68356 4.68691,-1.01557 1.34749,1.60148 2.73403,3.1639 4.08152,4.74584 0.56634,-2.01161 1.21079,-4.02322 1.79665,-6.03483 1.48419,-0.33202 2.98791,-0.66403 4.4721,-0.97651 -1.0155,3.26154 -2.10911,6.52309 -3.14414,9.78463 2.40204,2.71471 4.86267,5.35128 7.24519,8.04645"
       id="33"
       style="fill:#ffffff;fill-opacity:1;fill-rule:evenodd;stroke:none"
       inkscape:connector-curvature="0" />
    <path
       d="m 470.86752,453.77985 c -4.21823,1.11322 -8.45598,2.22644 -12.6742,3.32014 -1.60136,-6.09343 -3.20273,-12.20639 -4.78456,-18.29982 1.58183,-0.41013 3.1832,-0.8398 4.76503,-1.24993 1.2889,4.94114 2.5778,9.88229 3.8667,14.82343 2.65592,-0.70309 5.29231,-1.38664 7.9287,-2.0702 0.29293,1.15228 0.60539,2.32409 0.89833,3.47638"
       id="34"
       style="fill:#ffffff;fill-opacity:1;fill-rule:evenodd;stroke:none"
       inkscape:connector-curvature="0" />
    <path
       d="m 480.20229,451.65105 c -2.24582,0.80074 -4.17917,0.87886 -5.761,0.17578 -1.62089,-0.70309 -2.81215,-2.08974 -3.57377,-4.23806 -1.30843,-3.65215 -2.61686,-7.3043 -3.92529,-10.95645 1.40607,-0.50779 2.79261,-0.99605 4.19869,-1.50383 1.26937,3.57403 2.55827,7.14806 3.82765,10.70256 0.42963,1.19134 0.97644,1.99208 1.62089,2.44128 0.64445,0.42966 1.46466,0.44919 2.4411,0.0976 0.97644,-0.33202 1.58183,-0.85933 1.83571,-1.60148 0.23434,-0.72262 0.15623,-1.69913 -0.29294,-2.92953 -1.2889,-3.57403 -2.55827,-7.14806 -3.82764,-10.72209 1.38654,-0.48826 2.79262,-0.99604 4.17916,-1.50383 1.30843,3.65215 2.61686,7.3043 3.92529,10.95645 0.76163,2.10927 0.7421,3.94511 -0.0195,5.50752 -0.74209,1.56242 -2.3044,2.75376 -4.62832,3.57403"
       id="35"
       style="fill:#ffffff;fill-opacity:1;fill-rule:evenodd;stroke:none"
       inkscape:connector-curvature="0" />
    <path
       d="m 497.89539,446.35836 c -2.69498,1.03511 -5.17514,1.11323 -7.34284,0.15625 -2.16769,-0.95698 -3.80811,-2.79282 -4.8822,-5.58565 -1.0155,-2.69517 -1.0155,-5.13644 -0.0586,-7.38242 0.95691,-2.20691 2.83167,-3.82792 5.54618,-4.86302 0.72256,-0.27343 1.38654,-0.48826 1.99194,-0.62497 0.60539,-0.13671 1.19125,-0.25389 1.77712,-0.31248 0.44916,-0.0391 0.95691,-0.0586 1.52324,-0.0586 0.56634,0.0195 1.0155,0.0391 1.36702,0.0781 0.52728,1.34758 1.03503,2.69517 1.56231,4.04275 -0.15624,0.0586 -0.31247,0.11718 -0.4687,0.17577 -0.29293,-0.0976 -0.64445,-0.1953 -1.07408,-0.33201 -0.42963,-0.13671 -0.89833,-0.23436 -1.4256,-0.31248 -0.50775,-0.0977 -1.05456,-0.11718 -1.62089,-0.0977 -0.56634,0.0195 -1.13268,0.13671 -1.67948,0.35154 -0.66398,0.25389 -1.23032,0.56638 -1.69901,0.97651 -0.46869,0.3906 -0.85927,0.93745 -1.17173,1.60148 -0.2734,0.62497 -0.44916,1.34758 -0.42963,2.18738 0,0.85933 0.17576,1.77725 0.56633,2.79282 0.41011,1.05464 0.8788,1.87491 1.46467,2.48034 0.56633,0.60544 1.19125,1.0351 1.8357,1.30853 0.64445,0.23436 1.2889,0.33201 1.93336,0.31248 0.64445,-0.0195 1.26937,-0.15624 1.8357,-0.37107 0.6054,-0.23437 1.13267,-0.52732 1.60137,-0.93745 0.48822,-0.39061 0.85926,-0.76168 1.15219,-1.15229 0.29294,-0.3906 0.58587,-0.76168 0.78116,-1.11322 0.21481,-0.37107 0.4101,-0.68356 0.56633,-0.95698 0.1367,-0.0586 0.27341,-0.11718 0.41011,-0.17577 0.50775,1.34758 1.0155,2.67564 1.52324,4.00369 -0.2734,0.27343 -0.60539,0.58591 -0.95691,0.93745 -0.37104,0.37108 -0.76162,0.68356 -1.17173,0.99604 -0.50774,0.37108 -0.99596,0.70309 -1.44513,0.97651 -0.46869,0.27343 -1.13267,0.56638 -2.01146,0.89839"
       id="36"
       style="fill:#ffffff;fill-opacity:1;fill-rule:evenodd;stroke:none"
       inkscape:connector-curvature="0" />
    <path
       d="m 511.29215,440.85084 c -1.32796,0.6445 -2.65592,1.289 -3.98388,1.93349 -0.46869,-0.97651 -0.95691,-1.95302 -1.4256,-2.91 0.35152,-0.17577 0.70304,-0.35154 1.07408,-0.52731 -1.77712,-3.63262 -3.53471,-7.26525 -5.31183,-10.89787 -0.35152,0.17578 -0.70304,0.35155 -1.05456,0.52732 -0.46869,-0.97651 -0.95691,-1.95302 -1.4256,-2.92953 1.32796,-0.6445 2.65592,-1.289 3.98387,-1.93349 0.48823,0.97651 0.95692,1.95302 1.42561,2.92953 -0.35152,0.15624 -0.70304,0.33201 -1.05456,0.50778 1.75759,3.63262 3.51519,7.26525 5.29231,10.89787 0.35152,-0.17578 0.70304,-0.35155 1.05455,-0.52732 0.4687,0.97651 0.95692,1.95302 1.42561,2.92953"
       id="37"
       style="fill:#ffffff;fill-opacity:1;fill-rule:evenodd;stroke:none"
       inkscape:connector-curvature="0" />
    <path
       d="m 519.22084,436.76903 c -1.17172,0.54684 -2.24581,0.91792 -3.22225,1.09369 -0.99597,0.17577 -1.95288,0.29295 -2.89026,0.27342 -0.62492,-1.30852 -1.24985,-2.59752 -1.87477,-3.90604 0.11717,-0.0586 0.21482,-0.11718 0.33199,-0.17577 1.09361,0.35154 2.18723,0.46872 3.28084,0.41013 1.09361,-0.0586 2.07005,-0.29295 2.92932,-0.72262 0.21482,-0.0977 0.50775,-0.25389 0.83974,-0.48825 0.31246,-0.23436 0.56634,-0.42967 0.72257,-0.6445 0.21481,-0.25389 0.35152,-0.54685 0.4101,-0.85933 0.0781,-0.31248 0.0391,-0.6445 -0.1367,-1.01557 -0.21482,-0.41013 -0.52728,-0.68356 -0.93738,-0.80074 -0.41011,-0.11718 -0.85927,-0.11718 -1.34749,-0.0391 -0.58586,0.0977 -1.19126,0.23436 -1.83571,0.37107 -0.64445,0.15625 -1.2889,0.2539 -1.87476,0.31249 -1.38655,0.0977 -2.51922,-0.0781 -3.39802,-0.60544 -0.85926,-0.52731 -1.58183,-1.34758 -2.12864,-2.48034 -0.74209,-1.54288 -0.72256,-3.06624 -0.0195,-4.60913 0.72257,-1.54289 2.01147,-2.73423 3.80812,-3.59356 0.89833,-0.42966 1.83571,-0.76168 2.83168,-0.99604 0.97644,-0.21483 1.89429,-0.35154 2.77309,-0.35154 0.58586,1.26946 1.19126,2.51939 1.79665,3.76933 -0.0976,0.0586 -0.21482,0.0976 -0.33199,0.15624 -0.80068,-0.25389 -1.69901,-0.35154 -2.67545,-0.33201 -0.99597,0.0195 -1.91382,0.25389 -2.77309,0.66402 -0.33199,0.15625 -0.60539,0.31249 -0.83974,0.50779 -0.23434,0.17577 -0.46869,0.41013 -0.70303,0.68356 -0.15623,0.23436 -0.29293,0.50778 -0.35152,0.82027 -0.0586,0.31248 -0.0195,0.62496 0.11717,0.91792 0.19529,0.41013 0.50775,0.66402 0.89833,0.78121 0.39057,0.13671 1.03502,0.0977 1.91382,-0.0781 0.56634,-0.11718 1.09361,-0.23436 1.64042,-0.35154 0.52728,-0.0977 1.09361,-0.1953 1.73806,-0.23436 1.23032,-0.0781 2.28487,0.0781 3.14414,0.52731 0.82021,0.4492 1.54278,1.24994 2.08958,2.40222 0.78116,1.62101 0.82021,3.22249 0.13671,4.7849 -0.70304,1.58195 -2.07006,2.83189 -4.062,3.8084"
       id="38"
       style="fill:#ffffff;fill-opacity:1;fill-rule:evenodd;stroke:none"
       inkscape:connector-curvature="0" />
  </g>
</svg>
